<?xml version="1.0" encoding="UTF-8" standalone="no"?>
<svg
   xmlns:dc="http://purl.org/dc/elements/1.1/"
   xmlns:cc="http://creativecommons.org/ns#"
   xmlns:rdf="http://www.w3.org/1999/02/22-rdf-syntax-ns#"
   xmlns:svg="http://www.w3.org/2000/svg"
   xmlns="http://www.w3.org/2000/svg"
   xmlns:sodipodi="http://sodipodi.sourceforge.net/DTD/sodipodi-0.dtd"
   xmlns:inkscape="http://www.inkscape.org/namespaces/inkscape"
   height="4096"
   width="4096"
   viewBox="0 0 3593.0112 3592.2167"
   version="1.1"
   id="svg6"
   sodipodi:docname="twitch-logo.svg"
   inkscape:export-filename="G:\Users\suitedoalex\sites\twitch-logo-0.png"
   inkscape:export-xdpi="96"
   inkscape:export-ydpi="96"
   inkscape:version="0.92.2 (5c3e80d, 2017-08-06)">
  <metadata
     id="metadata12">
    <rdf:RDF>
      <cc:Work
         rdf:about="">
        <dc:format>image/svg+xml</dc:format>
        <dc:type
           rdf:resource="http://purl.org/dc/dcmitype/StillImage" />
        <dc:title></dc:title>
      </cc:Work>
    </rdf:RDF>
  </metadata>
  <defs
     id="defs10" />
  <sodipodi:namedview
     pagecolor="#ffffff"
     bordercolor="#666666"
     borderopacity="1"
     objecttolerance="10"
     gridtolerance="10"
     guidetolerance="10"
     inkscape:pageopacity="0"
     inkscape:pageshadow="2"
     inkscape:window-width="1600"
     inkscape:window-height="837"
     id="namedview8"
     showgrid="false"
     inkscape:zoom="0.094469466"
     inkscape:cx="3358.6531"
     inkscape:cy="2203.4746"
     inkscape:window-x="-8"
     inkscape:window-y="-8"
     inkscape:window-maximized="1"
     inkscape:current-layer="svg6" />
  <path
     d="m 323.21278,1329.7185 251.00646,10.3152 154.73165,140.9775 777.09011,3.4375 -3.4375,-158.1677 522.6449,3.4375 -3.4375,147.8539 161.6066,6.8763 3.4375,116.9081 137.5386,-116.9081 326.6536,-3.4375 v -144.4163 l 278.5147,-6.875 3.4375,147.8539 195.9926,3.4374 151.2914,137.5387 3.4389,488.2601 -2826.40977,6.8764 -147.85388,-154.7289 z"
     id="path2"
     inkscape:connector-curvature="0"
     style="fill:#ffffff;stroke-width:1.38052177"
     inkscape:export-filename="G:\Users\suitedoalex\sites\twitch-logo.png"
     inkscape:export-xdpi="113.93258"
     inkscape:export-ydpi="113.93258" />
  <path
     d="m 568.5315,2220.5071 -129.07878,-77.3935 -78.34461,-78.2549 -78.34461,-78.2548 v -692.3414 h 329.22267 l 78.0437,77.9994 78.04221,77.9995 h 352.99112 c 347.5795,0 353.0132,-0.041 354.4214,-2.6699 0.9345,-1.7478 1.4289,-28.7135 1.4289,-77.9995 v -75.3296 h 588.0787 l 0.3576,77.6544 0.3561,77.6544 77.3093,0.6902 77.3092,0.6903 0.3658,41.0705 c 0.2015,22.5894 0.809,41.0705 1.3501,41.0705 0.5413,0 19.6587,-18.637 42.4828,-41.4157 l 41.4986,-41.4156 h 173.7855 l 78.0437,-77.9995 78.045,-77.9995 h 327.8408 v 75.3296 c 0,49.286 0.4943,76.2517 1.4288,77.9995 1.3916,2.5995 3.9097,2.6699 95.6067,2.6699 h 94.1765 l 77.6488,77.6585 77.6502,77.6599 v 519.2266 l -129.424,86.5725 -129.4239,86.5753 -86.5698,-0.028 -86.5696,-0.025 -0.4032,-41.3038 c -0.2209,-22.7152 -0.8449,-41.7429 -1.3832,-42.2812 -0.5385,-0.5385 -27.6326,18.0474 -60.2074,41.3024 l -59.2244,42.2826 h -156.3827 v -41.4157 c 0,-32.3222 -0.381,-41.4155 -1.734,-41.4155 -0.9539,0 -20.3626,18.637 -43.133,41.4155 l -41.3977,41.4157 h -277.5193 l -42.059,-42.0754 c -23.1321,-23.1418 -42.5422,-41.5939 -43.1331,-41.0015 -0.5895,0.5896 -4.4797,18.1263 -8.642,38.9679 -4.1636,20.8432 -7.9035,39.294 -8.3108,41.0015 l -0.7399,3.1062 h -242.2471 l -41.3977,-41.4156 c -22.7689,-22.7787 -42.1791,-41.4157 -43.133,-41.4157 -1.3529,0 -1.7339,9.0948 -1.7339,41.4157 v 41.4156 h -121.4859 c -66.8173,0 -121.4859,-0.1836 -121.4859,-0.41 0,-2.1729 -16.7306,-83.0453 -17.298,-83.6113 -0.4141,-0.4169 -19.838,18.3195 -43.162,41.6324 l -42.4055,42.3903 h -450.7044 l -41.43506,-16.5663 c -22.78961,-9.1114 -42.05208,-16.5662 -42.80579,-16.5662 -0.8311,0 -1.37085,6.5217 -1.37085,16.5662 v 16.5663 H 697.61024 L 568.5315,2220.505 Z m 129.07874,-242.8863 v -94.5658 l -77.30916,-0.6902 -77.30923,-0.6903 v -171.1846 l 77.30923,-0.6903 77.30916,-0.6902 v -189.1315 l -77.30916,-0.6903 -77.30923,-0.6902 -0.69027,-77.3093 -0.69026,-77.3092 H 352.47985 l -0.34789,294.0111 -0.34927,294.0111 60.38815,60.4461 60.38817,60.4462 112.52632,-0.3534 112.52491,-0.3535 z m 718.93156,34.8168 60.3813,-60.4393 -0.3493,-216.0103 -0.3492,-216.0101 -94.9054,-0.3549 -94.9067,-0.3547 -0.3493,181.2031 -0.3506,181.2031 h -67.6456 l -0.6902,-180.8484 -0.6904,-180.8483 -94.9053,-0.3549 -94.9068,-0.3547 -0.3492,181.2031 -0.3507,181.2031 h -67.64553 l -0.69022,-180.8483 -0.69031,-180.8483 -94.91084,-0.3549 -94.91085,-0.3547 v 553.6085 h 588.83525 z m 319.2209,-216.3554 v -276.1043 l -94.911,-0.3549 -94.9108,-0.3547 v 553.6278 l 94.9108,-0.3547 94.911,-0.3549 z m 414.8467,181.5496 v -95.2435 l -76.9641,-0.3575 -76.9641,-0.3563 v -171.1846 l 76.9641,-0.3563 76.9641,-0.3575 V 1519.311 l -76.9641,-0.3575 -76.9641,-0.3561 -0.6902,-77.3093 -0.6903,-77.3092 h -189.1315 l -0.3479,294.0414 -0.3492,294.0429 60.3951,60.4075 60.395,60.4061 h 224.3472 z m 484.5631,-0.014 v -95.256 H 2523.498 c -100.5586,0 -111.7574,-0.2167 -112.5125,-2.1825 -1.0948,-2.8536 -1.0948,-165.3451 0,-168.1987 0.7551,-1.9659 11.9539,-2.184 112.5125,-2.184 h 111.6745 v -190.512 H 2340.467 l -59.7254,59.7255 -59.7256,59.7256 v 314.6885 l 59.7256,59.7255 59.7254,59.7241 h 294.7055 z m 259.8777,-85.9374 0.3507,-181.1935 h 154.6184 l 0.6903,180.8483 0.6902,180.8484 h 189.1315 l 0.3492,-216.0102 0.3494,-216.0103 -60.3799,-60.4392 -60.3812,-60.4393 h -111.3295 c -91.454,0 -111.6041,-0.3313 -112.8673,-1.8526 -1.0782,-1.3004 -1.6428,-24.4698 -1.8941,-77.6544 l -0.3576,-75.8016 h -189.1314 l -0.3535,352.7232 c -0.1946,193.9978 -0.06,353.5006 0.301,354.449 0.5163,1.357 20.8459,1.7256 95.2601,1.7256 h 94.6045 z M 1735.7627,1406.7723 v -42.7962 h -189.1315 l -0.3658,41.4018 c -0.2016,22.769 -0.065,42.1874 0.305,43.1497 0.5356,1.3943 19.8285,1.6787 94.9316,1.3957 l 94.2607,-0.3548 z"
     id="path4"
     style="fill:#6441a4;fill-opacity:1;stroke-width:1.38052177"
     inkscape:connector-curvature="0"
     inkscape:export-filename="G:\Users\suitedoalex\sites\twitch-logo.png"
     inkscape:export-xdpi="113.93258"
     inkscape:export-ydpi="113.93258" />
</svg>
